# Blender v2.74 (sub 0) OBJ File: '3dimgur.blend'
# www.blender.org
mtllib 3dimgur_noroof.mtl
o Plane
v 0.063804 0.523823 8.023510
v 0.063804 0.523823 -7.689185
v 0.063804 0.523823 0.167163
v 3.991977 0.523823 8.023510
v -3.864370 0.523823 -7.689185
v -3.864370 0.523823 8.023510
v 3.991977 0.523823 -7.689185
v 0.063804 0.523823 -3.761011
v 0.063804 0.523823 4.095336
v -3.864370 0.523823 0.167163
v 3.991977 0.523823 0.167163
v 3.991977 0.523823 4.095336
v -3.864370 0.523823 4.095336
v -3.864370 0.523823 -3.761011
v 3.991977 0.523823 -3.761011
v -1.900283 0.523823 8.023510
v 2.027891 0.523823 -7.689185
v 0.063804 0.523823 -5.725098
v 0.063804 0.523823 2.131249
v -5.828457 0.523823 0.167163
v 2.027891 0.523823 0.167163
v 2.027891 0.523823 8.023510
v -1.900283 0.523823 -7.689185
v 0.063804 0.523823 -1.796924
v 0.063804 0.523823 6.059423
v -1.900283 0.523823 0.167163
v 5.956064 0.523823 0.167163
v 3.991977 0.523823 2.131249
v 3.991977 0.523823 6.059423
v 2.027891 0.523823 4.095336
v -3.864370 0.523823 2.131249
v -3.864370 0.523823 6.059423
v -1.900283 0.523823 4.095336
v -3.864370 0.523823 -5.725098
v -1.900283 0.523823 -3.761011
v 3.991977 0.523823 -5.725098
v 2.027891 0.523823 -3.761011
v 2.027891 0.523823 -1.796924
v 2.027891 0.523823 -5.725098
v -1.900283 0.523823 6.059423
v -5.828457 0.523823 2.131249
v 2.027891 0.523823 6.059423
v 2.027891 0.523823 2.131249
v 5.956064 0.523823 2.131249
v -1.900283 0.523823 2.131249
v -1.900283 0.523823 -5.725098
v -0.918239 0.523823 8.023510
v 1.045847 0.523823 -7.689185
v 0.063804 0.523823 -6.707141
v 0.063804 0.523823 1.149206
v 1.045847 0.523823 0.167163
v 3.009934 0.523823 8.023510
v -2.882326 0.523823 -7.689185
v 4.974021 0.523823 -7.689185
v 0.063804 0.523823 -2.778968
v 0.063804 0.523823 5.077379
v -2.882326 0.523823 0.167163
v 4.974021 0.523823 0.167163
v 3.991977 0.523823 1.149206
v 3.991977 0.523823 5.077379
v 1.045847 0.523823 4.095336
v 4.974021 0.523823 4.095336
v -3.864370 0.523823 1.149206
v -3.864370 0.523823 5.077379
v -2.882326 0.523823 4.095336
v -3.864370 0.523823 -6.707141
v -3.864370 0.523823 -2.778968
v -2.882326 0.523823 -3.761011
v 3.991977 0.523823 -6.707141
v 3.991977 0.523823 -2.778968
v 1.045847 0.523823 -3.761011
v 4.974021 0.523823 -3.761011
v 4.974021 0.523823 8.023510
v -2.882326 0.523823 8.023510
v 3.009934 0.523823 -7.689185
v 0.063804 0.523823 -4.743054
v 0.063804 0.523823 3.113293
v -4.846413 0.523823 0.167163
v 3.009934 0.523823 0.167163
v 1.045847 0.523823 8.023510
v -0.918239 0.523823 -7.689185
v 0.063804 0.523823 -0.814881
v 0.063804 0.523823 7.041466
v -0.918239 0.523823 0.167163
v 6.938107 0.523823 0.167163
v 3.991977 0.523823 3.113293
v 3.991977 0.523823 7.041466
v 3.009934 0.523823 4.095336
v -3.864370 0.523823 3.113293
v -3.864370 0.523823 7.041466
v -0.918239 0.523823 4.095336
v -3.864370 0.523823 -4.743054
v -3.864370 0.523823 -0.814881
v -0.918239 0.523823 -3.761011
v 3.991977 0.523823 -4.743054
v 3.991977 0.523823 -0.814881
v 3.009934 0.523823 -3.761011
v 5.956064 0.523823 -0.814881
v 2.027891 0.523823 -2.778968
v 2.027891 0.523823 -0.814881
v 1.045847 0.523823 -1.796924
v 2.027891 0.523823 -6.707141
v 2.027891 0.523823 -4.743054
v 1.045847 0.523823 -5.725098
v 3.009934 0.523823 -5.725098
v -1.900283 0.523823 -2.778968
v -1.900283 0.523823 -0.814881
v -0.918239 0.523823 -1.796924
v -5.828457 0.523823 -0.814881
v -1.900283 0.523823 5.077379
v -1.900283 0.523823 7.041466
v -2.882326 0.523823 6.059423
v -0.918239 0.523823 6.059423
v -5.828457 0.523823 1.149206
v -4.846413 0.523823 2.131249
v 4.974021 0.523823 6.059423
v 2.027891 0.523823 5.077379
v 2.027891 0.523823 7.041466
v 1.045847 0.523823 6.059423
v 3.009934 0.523823 6.059423
v 2.027891 0.523823 1.149206
v 2.027891 0.523823 3.113293
v 1.045847 0.523823 2.131249
v 3.009934 0.523823 2.131249
v 5.956064 0.523823 1.149206
v 4.974021 0.523823 2.131249
v 6.938107 0.523823 2.131249
v -1.900283 0.523823 1.149206
v -1.900283 0.523823 3.113293
v -2.882326 0.523823 2.131249
v -0.918239 0.523823 2.131249
v -1.900283 0.523823 -6.707141
v -1.900283 0.523823 -4.743054
v -2.882326 0.523823 -5.725098
v -0.918239 0.523823 -5.725098
v 4.974021 0.523823 -5.725098
v 4.974021 0.523823 -4.743054
v 4.974021 0.523823 -6.707141
v -0.918239 0.523823 -4.743054
v -2.882326 0.523823 -4.743054
v -2.882326 0.523823 -6.707141
v -0.918239 0.523823 3.113293
v -2.882326 0.523823 3.113293
v -2.882326 0.523823 1.149206
v 4.974021 0.523823 3.113293
v 4.974021 0.523823 1.149206
v 3.009934 0.523823 3.113293
v 1.045847 0.523823 3.113293
v 1.045847 0.523823 1.149206
v 3.009934 0.523823 7.041466
v 1.045847 0.523823 7.041466
v 1.045847 0.523823 5.077379
v 4.974021 0.523823 7.041466
v 4.974021 0.523823 5.077379
v -0.918239 0.523823 7.041466
v -2.882326 0.523823 7.041466
v -2.882326 0.523823 5.077379
v -4.846413 0.523823 -0.814881
v -0.918239 0.523823 -0.814881
v -2.882326 0.523823 -0.814881
v -2.882326 0.523823 -2.778968
v 3.009934 0.523823 -4.743054
v 1.045847 0.523823 -4.743054
v 1.045847 0.523823 -6.707141
v 3.009934 0.523823 -0.814881
v 1.045847 0.523823 -0.814881
v 1.045847 0.523823 -2.778968
v 6.938107 0.523823 -0.814881
v 4.974021 0.523823 -0.814881
v 4.974021 0.523823 -2.778968
v 3.009934 0.523823 -2.778968
v 3.009934 0.523823 -6.707141
v -0.918239 0.523823 -2.778968
v -0.918239 0.523823 5.077379
v -4.846413 0.523823 1.149206
v 3.009934 0.523823 5.077379
v 3.009934 0.523823 1.149206
v 6.938107 0.523823 1.149206
v -0.918239 0.523823 1.149206
v -0.918239 0.523823 -6.707141
v 0.063804 1.689405 -7.692629
v -3.864370 1.689405 -7.692629
v 3.991977 1.689405 -7.692629
v -3.864370 1.689405 -3.764455
v 2.027891 1.689405 -7.692629
v -1.900283 1.689405 -7.692629
v -3.864370 1.689405 -5.728542
v 3.991977 1.689405 -5.728542
v 2.027891 1.689405 -3.764455
v 2.027891 1.689405 -1.800369
v 2.027891 1.689405 -5.728542
v -1.900283 1.689405 -5.728542
v 1.045847 1.689405 -7.692629
v -2.882326 1.689405 -7.692629
v 4.974021 1.689405 -7.692629
v -3.864370 1.689405 -6.710586
v -3.864370 1.689405 -2.782412
v 3.991977 1.689405 -2.782412
v 4.974021 1.689405 -3.764455
v 3.009934 1.689405 -7.692629
v -0.918239 1.689405 -7.692629
v -3.864370 1.689405 -4.746499
v -0.918239 1.689405 -3.764455
v 3.991977 1.689405 -4.746499
v 2.027891 1.689405 -2.782412
v 2.027891 1.689405 -0.818325
v 2.027891 1.689405 -6.710586
v 2.027891 1.689405 -4.746499
v 3.009934 1.689405 -5.728542
v -1.900283 1.689405 -2.782412
v -0.918239 1.689405 -1.800369
v -1.900283 1.689405 -4.746499
v -2.882326 1.689405 -5.728542
v -0.918239 1.689405 -5.728542
v 4.974021 1.689405 -5.728542
v 4.974021 1.689405 -4.746499
v 4.974021 1.689405 -6.710586
v -0.918239 1.689405 -4.746499
v -2.882326 1.689405 -4.746499
v -0.918239 1.689405 -0.818325
v -2.882326 1.689405 -2.782412
v 3.009934 1.689405 -4.746499
v 4.974021 1.689405 -2.782412
v 3.009934 1.689405 -2.782412
v -0.918239 1.689405 -2.782412
v -0.918239 1.689405 -6.710586
v 0.063804 1.705823 8.026916
v 3.991977 1.705823 8.026916
v -3.864370 1.705823 8.026916
v 3.991977 1.705823 0.170569
v -3.864370 1.705823 4.098742
v -1.900283 1.705823 8.026916
v -5.828457 1.705823 0.170569
v 2.027891 1.705823 8.026916
v 3.991977 1.705823 2.134655
v 3.991977 1.705823 6.062829
v 2.027891 1.705823 4.098742
v -3.864370 1.705823 2.134655
v -3.864370 1.705823 6.062829
v -1.900283 1.705823 6.062829
v -5.828457 1.705823 2.134655
v 2.027891 1.705823 6.062829
v 2.027891 1.705823 2.134655
v 5.956064 1.705823 2.134655
v -1.900283 1.705823 2.134655
v -0.918239 1.705823 8.026916
v 3.009934 1.705823 8.026916
v -2.882326 1.705823 0.170569
v 3.991977 1.705823 1.152612
v 3.991977 1.705823 5.080786
v 4.974021 1.705823 4.098742
v -3.864370 1.705823 5.080786
v 4.974021 1.705823 8.026916
v -2.882326 1.705823 8.026916
v 1.045847 1.705823 8.026916
v 6.938107 1.705823 0.170569
v 3.991977 1.705823 3.116699
v -3.864370 1.705823 3.116699
v -3.864370 1.705823 7.044872
v -0.918239 1.705823 4.098742
v -3.864370 1.705823 -0.811475
v 3.991977 1.705823 -0.811475
v 5.956064 1.705823 -0.811475
v 2.027891 1.705823 -0.811475
v -1.900283 1.705823 -0.811475
v -5.828457 1.705823 -0.811475
v -1.900283 1.705823 5.080786
v -2.882326 1.705823 6.062829
v -0.918239 1.705823 6.062829
v -5.828457 1.705823 1.152612
v -4.846413 1.705823 2.134655
v 4.974021 1.705823 6.062829
v 2.027891 1.705823 5.080786
v 2.027891 1.705823 7.044872
v 3.009934 1.705823 6.062829
v 2.027891 1.705823 3.116699
v 3.009934 1.705823 2.134655
v 4.974021 1.705823 2.134655
v 6.938107 1.705823 2.134655
v -1.900283 1.705823 3.116699
v -2.882326 1.705823 2.134655
v -0.918239 1.705823 2.134655
v -0.918239 1.705823 3.116699
v -2.882326 1.705823 3.116699
v -2.882326 1.705823 1.152612
v 4.974021 1.705823 3.116699
v 3.009934 1.705823 3.116699
v 4.974021 1.705823 7.044872
v 4.974021 1.705823 5.080786
v -0.918239 1.705823 7.044872
v -2.882326 1.705823 5.080786
v -4.846413 1.705823 -0.811475
v -0.918239 1.705823 -0.811475
v -2.882326 1.705823 -0.811475
v 3.009934 1.705823 -0.811475
v 6.938107 1.705823 -0.811475
v 4.974021 1.705823 -0.811475
v -0.918239 1.705823 5.080786
v 3.009934 1.705823 5.080786
v 6.938107 1.705823 1.152612
vn 0.000000 1.000000 0.000000
vn 0.000000 0.003000 1.000000
vn 0.000000 -0.003000 -1.000000
vn 1.000000 -0.000000 0.000000
vn -1.000000 0.000000 0.000000
vn 0.000000 0.002900 -1.000000
vn 0.000000 -0.002900 1.000000
usemtl None
s off
f 180//1 49//1 2//1 81//1
f 179//1 50//1 3//1 84//1
f 177//1 59//1 11//1 79//1
f 176//1 60//1 12//1 88//1
f 175//1 63//1 10//1 78//1
f 174//1 56//1 9//1 91//1
f 173//1 55//1 8//1 94//1
f 172//1 69//1 7//1 75//1
f 171//1 70//1 15//1 97//1
f 167//1 99//1 37//1 71//1
f 166//1 100//1 38//1 101//1
f 164//1 102//1 17//1 48//1
f 163//1 103//1 39//1 104//1
f 161//1 106//1 35//1 68//1
f 159//1 82//1 24//1 108//1
f 157//1 110//1 33//1 65//1
f 156//1 111//1 40//1 112//1
f 155//1 83//1 25//1 113//1
f 152//1 117//1 30//1 61//1
f 151//1 118//1 42//1 119//1
f 150//1 87//1 29//1 120//1
f 149//1 121//1 21//1 51//1
f 148//1 122//1 43//1 123//1
f 146//1 125//1 27//1 58//1
f 144//1 128//1 26//1 57//1
f 142//1 77//1 19//1 131//1
f 141//1 132//1 23//1 53//1
f 139//1 76//1 18//1 135//1
f 15//1 72//1 137//1 95//1
f 69//1 138//1 54//1 7//1
f 36//1 136//1 138//1 69//1
f 35//1 94//1 139//1 133//1
f 94//1 8//1 76//1 139//1
f 14//1 68//1 140//1 92//1
f 68//1 35//1 133//1 140//1
f 66//1 141//1 53//1 5//1
f 34//1 134//1 141//1 66//1
f 134//1 46//1 132//1 141//1
f 33//1 91//1 142//1 129//1
f 91//1 9//1 77//1 142//1
f 13//1 65//1 143//1 89//1
f 65//1 33//1 129//1 143//1
f 63//1 144//1 57//1 10//1
f 31//1 130//1 144//1 63//1
f 130//1 45//1 128//1 144//1
f 12//1 62//1 145//1 86//1
f 59//1 146//1 58//1 11//1
f 28//1 126//1 146//1 59//1
f 126//1 44//1 125//1 146//1
f 30//1 88//1 147//1 122//1
f 88//1 12//1 86//1 147//1
f 77//1 148//1 123//1 19//1
f 9//1 61//1 148//1 77//1
f 61//1 30//1 122//1 148//1
f 50//1 149//1 51//1 3//1
f 19//1 123//1 149//1 50//1
f 123//1 43//1 121//1 149//1
f 118//1 150//1 120//1 42//1
f 22//1 52//1 150//1 118//1
f 52//1 4//1 87//1 150//1
f 83//1 151//1 119//1 25//1
f 1//1 80//1 151//1 83//1
f 80//1 22//1 118//1 151//1
f 56//1 152//1 61//1 9//1
f 25//1 119//1 152//1 56//1
f 119//1 42//1 117//1 152//1
f 87//1 153//1 116//1 29//1
f 4//1 73//1 153//1 87//1
f 60//1 154//1 62//1 12//1
f 111//1 155//1 113//1 40//1
f 16//1 47//1 155//1 111//1
f 47//1 1//1 83//1 155//1
f 90//1 156//1 112//1 32//1
f 6//1 74//1 156//1 90//1
f 74//1 16//1 111//1 156//1
f 64//1 157//1 65//1 13//1
f 20//1 78//1 158//1 109//1
f 78//1 10//1 93//1 158//1
f 26//1 84//1 159//1 107//1
f 84//1 3//1 82//1 159//1
f 10//1 57//1 160//1 93//1
f 57//1 26//1 107//1 160//1
f 67//1 161//1 68//1 14//1
f 37//1 97//1 162//1 103//1
f 97//1 15//1 95//1 162//1
f 76//1 163//1 104//1 18//1
f 8//1 71//1 163//1 76//1
f 71//1 37//1 103//1 163//1
f 49//1 164//1 48//1 2//1
f 18//1 104//1 164//1 49//1
f 104//1 39//1 102//1 164//1
f 21//1 79//1 165//1 100//1
f 79//1 11//1 96//1 165//1
f 82//1 166//1 101//1 24//1
f 3//1 51//1 166//1 82//1
f 51//1 21//1 100//1 166//1
f 55//1 167//1 71//1 8//1
f 24//1 101//1 167//1 55//1
f 101//1 38//1 99//1 167//1
f 27//1 85//1 168//1 98//1
f 11//1 58//1 169//1 96//1
f 58//1 27//1 98//1 169//1
f 70//1 170//1 72//1 15//1
f 99//1 171//1 97//1 37//1
f 102//1 172//1 75//1 17//1
f 39//1 105//1 172//1 102//1
f 105//1 36//1 69//1 172//1
f 106//1 173//1 94//1 35//1
f 108//1 24//1 55//1 173//1
f 110//1 174//1 91//1 33//1
f 113//1 25//1 56//1 174//1
f 114//1 175//1 78//1 20//1
f 41//1 115//1 175//1 114//1
f 115//1 31//1 63//1 175//1
f 117//1 176//1 88//1 30//1
f 121//1 177//1 79//1 21//1
f 43//1 124//1 177//1 121//1
f 124//1 28//1 59//1 177//1
f 125//1 178//1 85//1 27//1
f 44//1 127//1 178//1 125//1
f 128//1 179//1 84//1 26//1
f 45//1 131//1 179//1 128//1
f 131//1 19//1 50//1 179//1
f 132//1 180//1 81//1 23//1
f 46//1 135//1 180//1 132//1
f 135//1 18//1 49//1 180//1
f 99//2 171//2 224//2 205//2
f 46//3 134//3 213//3 192//3
f 108//4 173//4 225//4 211//4
f 72//5 170//5 223//5 199//5
f 67//2 161//2 221//2 197//2
f 100//4 38//4 190//4 206//4
f 92//2 140//2 219//2 202//2
f 38//4 99//4 205//4 190//4
f 54//5 138//5 217//5 195//5
f 108//5 159//5 220//5 211//5
f 2//2 48//2 193//2 181//2
f 36//3 105//3 209//3 188//3
f 103//2 162//2 222//2 208//2
f 75//2 7//2 183//2 200//2
f 103//4 39//4 191//4 208//4
f 72//4 137//4 216//4 199//4
f 23//2 81//2 201//2 186//2
f 171//2 70//2 198//2 224//2
f 135//5 139//5 218//5 214//5
f 106//2 173//2 225//2 210//2
f 161//2 106//2 210//2 221//2
f 140//2 133//2 212//2 219//2
f 136//4 138//4 217//4 215//4
f 5//2 53//2 194//2 182//2
f 48//2 17//2 185//2 193//2
f 66//4 5//4 182//4 196//4
f 162//2 95//2 204//2 222//2
f 95//2 137//2 216//2 204//2
f 94//4 139//4 218//4 203//4
f 81//2 2//2 181//2 201//2
f 92//5 14//5 184//5 202//5
f 103//5 37//5 189//5 208//5
f 70//2 170//2 223//2 198//2
f 134//3 34//3 187//3 213//3
f 7//2 54//2 195//2 183//2
f 81//5 180//5 226//5 201//5
f 67//4 14//4 184//4 197//4
f 136//3 36//3 188//3 215//3
f 105//3 39//3 191//3 209//3
f 53//2 23//2 186//2 194//2
f 66//5 34//5 187//5 196//5
f 17//2 75//2 200//2 185//2
f 133//2 139//2 218//2 212//2
f 135//3 46//3 192//3 214//3
f 102//4 17//4 185//4 207//4
f 62//4 145//4 286//4 251//4
f 113//6 40//6 240//6 269//6
f 127//4 178//4 300//4 279//4
f 98//7 168//7 296//7 263//7
f 117//7 176//7 299//7 273//7
f 115//6 41//6 241//6 271//6
f 74//6 6//6 229//6 254//6
f 109//5 20//5 233//5 266//5
f 45//6 130//6 281//6 245//6
f 126//6 28//6 235//6 278//6
f 41//4 114//4 270//4 241//4
f 86//7 145//7 286//7 257//7
f 28//6 124//6 277//6 235//6
f 120//6 42//6 242//6 275//6
f 80//6 1//6 227//6 255//6
f 107//7 159//7 293//7 265//7
f 47//4 155//4 290//4 246//4
f 89//5 13//5 231//5 258//5
f 176//7 60//7 250//7 299//7
f 42//4 117//4 273//4 242//4
f 1//6 47//6 246//6 227//6
f 122//7 147//7 287//7 276//7
f 127//6 44//6 244//6 279//6
f 59//5 28//5 235//5 249//5
f 62//5 154//5 289//5 251//5
f 4//6 52//6 247//6 228//6
f 6//4 90//4 259//4 229//4
f 40//6 112//6 268//6 240//6
f 147//7 86//7 257//7 287//7
f 118//5 22//5 234//5 274//5
f 64//7 157//7 291//7 252//7
f 11//4 96//4 262//4 230//4
f 100//7 165//7 295//7 264//7
f 122//4 43//4 243//4 276//4
f 64//4 13//4 231//4 252//4
f 116//6 29//6 236//6 272//6
f 89//7 143//7 284//7 258//7
f 157//7 110//7 267//7 291//7
f 60//7 154//7 289//7 250//7
f 73//6 4//6 228//6 253//6
f 31//6 115//6 271//6 238//6
f 165//7 96//7 262//7 295//7
f 109//7 158//7 292//7 266//7
f 44//6 126//6 278//6 244//6
f 96//7 169//7 297//7 262//7
f 57//4 160//4 294//4 248//4
f 29//6 120//6 275//6 236//6
f 16//6 74//6 254//6 232//6
f 143//7 129//7 280//7 284//7
f 130//6 31//6 238//6 281//6
f 47//6 16//6 232//6 246//6
f 114//4 20//4 233//4 270//4
f 158//7 93//7 261//7 292//7
f 131//5 142//5 283//5 282//5
f 22//6 80//6 255//6 234//6
f 124//6 43//6 243//6 277//6
f 169//7 98//7 263//7 297//7
f 93//7 160//7 294//7 261//7
f 116//5 153//5 288//5 272//5
f 52//6 22//6 234//6 247//6
f 113//4 174//4 298//4 269//4
f 131//6 45//6 245//6 282//6
f 91//4 142//4 283//4 260//4
f 160//7 107//7 265//7 294//7
f 73//4 153//4 288//4 253//4
f 90//4 32//4 239//4 259//4
f 112//6 32//6 239//6 268//6
f 85//5 178//5 300//5 256//5
f 122//5 30//5 237//5 276//5
f 110//7 174//7 298//7 267//7
f 85//4 168//4 296//4 256//4
f 130//4 144//4 285//4 281//4
f 129//7 142//7 283//7 280//7
