# Blender v2.74 (sub 0) OBJ File: '3dimgur_textures.blend'
# www.blender.org
mtllib 3dimgur_textureslights2.mtl
o Plane
v 0.063804 0.523823 8.023510
v 0.063804 0.523823 -7.689185
v 0.063804 0.523823 0.167163
v 3.991977 0.523823 8.023510
v -3.864370 0.523823 -7.689185
v -3.864370 0.523823 8.023510
v 3.991977 0.523823 -7.689185
v 0.063804 0.523823 -3.761011
v 0.063804 0.523823 4.095336
v -3.864370 0.523823 0.167163
v 3.991977 0.523823 0.167163
v 3.991977 0.523823 4.095336
v -3.864370 0.523823 4.095336
v -3.864370 0.523823 -3.761011
v 3.991977 0.523823 -3.761011
v -1.900283 0.523823 8.023510
v 2.027891 0.523823 -7.689185
v 0.063804 0.523823 -5.725098
v 0.063804 0.523823 2.131249
v -5.828457 0.523823 0.167163
v 2.027891 0.523823 0.167163
v 2.027891 0.523823 8.023510
v -1.900283 0.523823 -7.689185
v 0.063804 0.523823 -1.796924
v 0.063804 0.523823 6.059423
v -1.900283 0.523823 0.167163
v 5.956064 0.523823 0.167163
v 3.991977 0.523823 2.131249
v 3.991977 0.523823 6.059423
v 2.027891 0.523823 4.095336
v -3.864370 0.523823 2.131249
v -3.864370 0.523823 6.059423
v -1.900283 0.523823 4.095336
v -3.864370 0.523823 -5.725098
v -1.900283 0.523823 -3.761011
v 3.991977 0.523823 -5.725098
v 2.027891 0.523823 -3.761011
v 2.027891 0.523823 -1.796924
v 2.027891 0.523823 -5.725098
v -1.900283 0.523823 6.059423
v -5.828457 0.523823 2.131249
v 2.027891 0.523823 6.059423
v 2.027891 0.523823 2.131249
v 5.956064 0.523823 2.131249
v -1.900283 0.523823 2.131249
v -1.900283 0.523823 -5.725098
v -0.918239 0.523823 8.023510
v 1.045847 0.523823 -7.689185
v 0.063804 0.523823 -6.707141
v 0.063804 0.523823 1.149206
v 1.045847 0.523823 0.167163
v 3.009934 0.523823 8.023510
v -2.882326 0.523823 -7.689185
v 4.974021 0.523823 -7.689185
v 0.063804 0.523823 -2.778968
v 0.063804 0.523823 5.077379
v -2.882326 0.523823 0.167163
v 4.974021 0.523823 0.167163
v 3.991977 0.523823 1.149206
v 3.991977 0.523823 5.077379
v 1.045847 0.523823 4.095336
v 4.974021 0.523823 4.095336
v -3.864370 0.523823 1.149206
v -3.864370 0.523823 5.077379
v -2.882326 0.523823 4.095336
v -3.864370 0.523823 -6.707141
v -3.864370 0.523823 -2.778968
v -2.882326 0.523823 -3.761011
v 3.991977 0.523823 -6.707141
v 3.991977 0.523823 -2.778968
v 1.045847 0.523823 -3.761011
v 4.974021 0.523823 -3.761011
v 4.974021 0.523823 8.023510
v -2.882326 0.523823 8.023510
v 3.009934 0.523823 -7.689185
v 0.063804 0.523823 -4.743054
v 0.063804 0.523823 3.113293
v -4.846413 0.523823 0.167163
v 3.009934 0.523823 0.167163
v 1.045847 0.523823 8.023510
v -0.918239 0.523823 -7.689185
v 0.063804 0.523823 -0.814881
v 0.063804 0.523823 7.041466
v -0.918239 0.523823 0.167163
v 6.938107 0.523823 0.167163
v 3.991977 0.523823 3.113293
v 3.991977 0.523823 7.041466
v 3.009934 0.523823 4.095336
v -3.864370 0.523823 3.113293
v -3.864370 0.523823 7.041466
v -0.918239 0.523823 4.095336
v -3.864370 0.523823 -4.743054
v -3.864370 0.523823 -0.814881
v -0.918239 0.523823 -3.761011
v 3.991977 0.523823 -4.743054
v 3.991977 0.523823 -0.814881
v 3.009934 0.523823 -3.761011
v 5.956064 0.523823 -0.814881
v 2.027891 0.523823 -2.778968
v 2.027891 0.523823 -0.814881
v 1.045847 0.523823 -1.796924
v 2.027891 0.523823 -6.707141
v 2.027891 0.523823 -4.743054
v 1.045847 0.523823 -5.725098
v 3.009934 0.523823 -5.725098
v -1.900283 0.523823 -2.778968
v -1.900283 0.523823 -0.814881
v -0.918239 0.523823 -1.796924
v -5.828457 0.523823 -0.814881
v -1.900283 0.523823 5.077379
v -1.900283 0.523823 7.041466
v -2.882326 0.523823 6.059423
v -0.918239 0.523823 6.059423
v -5.828457 0.523823 1.149206
v -4.846413 0.523823 2.131249
v 4.974021 0.523823 6.059423
v 2.027891 0.523823 5.077379
v 2.027891 0.523823 7.041466
v 1.045847 0.523823 6.059423
v 3.009934 0.523823 6.059423
v 2.027891 0.523823 1.149206
v 2.027891 0.523823 3.113293
v 1.045847 0.523823 2.131249
v 3.009934 0.523823 2.131249
v 5.956064 0.523823 1.149206
v 4.974021 0.523823 2.131249
v 6.938107 0.523823 2.131249
v -1.900283 0.523823 1.149206
v -1.900283 0.523823 3.113293
v -2.882326 0.523823 2.131249
v -0.918239 0.523823 2.131249
v -1.900283 0.523823 -6.707141
v -1.900283 0.523823 -4.743054
v -2.882326 0.523823 -5.725098
v -0.918239 0.523823 -5.725098
v 4.974021 0.523823 -5.725098
v 4.974021 0.523823 -4.743054
v 4.974021 0.523823 -6.707141
v -0.918239 0.523823 -4.743054
v -2.882326 0.523823 -4.743054
v -2.882326 0.523823 -6.707141
v -0.918239 0.523823 3.113293
v -2.882326 0.523823 3.113293
v -2.882326 0.523823 1.149206
v 4.974021 0.523823 3.113293
v 4.974021 0.523823 1.149206
v 3.009934 0.523823 3.113293
v 1.045847 0.523823 3.113293
v 1.045847 0.523823 1.149206
v 3.009934 0.523823 7.041466
v 1.045847 0.523823 7.041466
v 1.045847 0.523823 5.077379
v 4.974021 0.523823 7.041466
v 4.974021 0.523823 5.077379
v -0.918239 0.523823 7.041466
v -2.882326 0.523823 7.041466
v -2.882326 0.523823 5.077379
v -4.846413 0.523823 -0.814881
v -0.918239 0.523823 -0.814881
v -2.882326 0.523823 -0.814881
v -2.882326 0.523823 -2.778968
v 3.009934 0.523823 -4.743054
v 1.045847 0.523823 -4.743054
v 1.045847 0.523823 -6.707141
v 3.009934 0.523823 -0.814881
v 1.045847 0.523823 -0.814881
v 1.045847 0.523823 -2.778968
v 6.938107 0.523823 -0.814881
v 4.974021 0.523823 -0.814881
v 4.974021 0.523823 -2.778968
v 3.009934 0.523823 -2.778968
v 3.009934 0.523823 -6.707141
v -0.918239 0.523823 -2.778968
v -0.918239 0.523823 5.077379
v -4.846413 0.523823 1.149206
v 3.009934 0.523823 5.077379
v 3.009934 0.523823 1.149206
v 6.938107 0.523823 1.149206
v -0.918239 0.523823 1.149206
v -0.918239 0.523823 -6.707141
v 0.063804 1.689405 -7.692629
v -3.864370 1.689405 -7.692629
v 3.991977 1.689405 -7.692629
v -3.864370 1.689405 -3.764455
v 2.027891 1.689405 -7.692629
v -1.900283 1.689405 -7.692629
v -3.864370 1.689405 -5.728542
v 3.991977 1.689405 -5.728542
v 2.027891 1.689405 -3.764455
v 2.027891 1.689405 -1.800369
v 2.027891 1.689405 -5.728542
v -1.900283 1.689405 -5.728542
v 1.045847 1.689405 -7.692629
v -2.882326 1.689405 -7.692629
v 4.974021 1.689405 -7.692629
v -3.864370 1.689405 -6.710586
v -3.864370 1.689405 -2.782412
v 3.991977 1.689405 -2.782412
v 4.974021 1.689405 -3.764455
v 3.009934 1.689405 -7.692629
v -0.918239 1.689405 -7.692629
v -3.864370 1.689405 -4.746499
v -0.918239 1.689405 -3.764455
v 3.991977 1.689405 -4.746499
v 2.027891 1.689405 -2.782412
v 2.027891 1.689405 -0.818325
v 2.027891 1.689405 -6.710586
v 2.027891 1.689405 -4.746499
v 3.009934 1.689405 -5.728542
v -1.900283 1.689405 -2.782412
v -0.918239 1.689405 -1.800369
v -1.900283 1.689405 -4.746499
v -2.882326 1.689405 -5.728542
v -0.918239 1.689405 -5.728542
v 4.974021 1.689405 -5.728542
v 4.974021 1.689405 -4.746499
v 4.974021 1.689405 -6.710586
v -0.918239 1.689405 -4.746499
v -2.882326 1.689405 -4.746499
v -0.918239 1.689405 -0.818325
v -2.882326 1.689405 -2.782412
v 3.009934 1.689405 -4.746499
v 4.974021 1.689405 -2.782412
v 3.009934 1.689405 -2.782412
v -0.918239 1.689405 -2.782412
v -0.918239 1.689405 -6.710586
v 0.063804 1.705823 8.026916
v 3.991977 1.705823 8.026916
v -3.864370 1.705823 8.026916
v 3.991977 1.705823 0.170569
v -3.864370 1.705823 4.098742
v -1.900283 1.705823 8.026916
v -5.828457 1.705823 0.170569
v 2.027891 1.705823 8.026916
v 3.991977 1.705823 2.134655
v 3.991977 1.705823 6.062829
v 2.027891 1.705823 4.098742
v -3.864370 1.705823 2.134655
v -3.864370 1.705823 6.062829
v -1.900283 1.705823 6.062829
v -5.828457 1.705823 2.134655
v 2.027891 1.705823 6.062829
v 2.027891 1.705823 2.134655
v 5.956064 1.705823 2.134655
v -1.900283 1.705823 2.134655
v -0.918239 1.705823 8.026916
v 3.009934 1.705823 8.026916
v -2.882326 1.705823 0.170569
v 3.991977 1.705823 1.152612
v 3.991977 1.705823 5.080786
v 4.974021 1.705823 4.098742
v -3.864370 1.705823 5.080786
v 4.974021 1.705823 8.026916
v -2.882326 1.705823 8.026916
v 1.045847 1.705823 8.026916
v 6.938107 1.705823 0.170569
v 3.991977 1.705823 3.116699
v -3.864370 1.705823 3.116699
v -3.864370 1.705823 7.044872
v -0.918239 1.705823 4.098742
v -3.864370 1.705823 -0.811475
v 3.991977 1.705823 -0.811475
v 5.956064 1.705823 -0.811475
v 2.027891 1.705823 -0.811475
v -1.900283 1.705823 -0.811475
v -5.828457 1.705823 -0.811475
v -1.900283 1.705823 5.080786
v -2.882326 1.705823 6.062829
v -0.918239 1.705823 6.062829
v -5.828457 1.705823 1.152612
v -4.846413 1.705823 2.134655
v 4.974021 1.705823 6.062829
v 2.027891 1.705823 5.080786
v 2.027891 1.705823 7.044872
v 3.009934 1.705823 6.062829
v 2.027891 1.705823 3.116699
v 3.009934 1.705823 2.134655
v 4.974021 1.705823 2.134655
v 6.938107 1.705823 2.134655
v -1.900283 1.705823 3.116699
v -2.882326 1.705823 2.134655
v -0.918239 1.705823 2.134655
v -0.918239 1.705823 3.116699
v -2.882326 1.705823 3.116699
v -2.882326 1.705823 1.152612
v 4.974021 1.705823 3.116699
v 3.009934 1.705823 3.116699
v 4.974021 1.705823 7.044872
v 4.974021 1.705823 5.080786
v -0.918239 1.705823 7.044872
v -2.882326 1.705823 5.080786
v -4.846413 1.705823 -0.811475
v -0.918239 1.705823 -0.811475
v -2.882326 1.705823 -0.811475
v 3.009934 1.705823 -0.811475
v 6.938107 1.705823 -0.811475
v 4.974021 1.705823 -0.811475
v -0.918239 1.705823 5.080786
v 3.009934 1.705823 5.080786
v 6.938107 1.705823 1.152612
vt 0.469402 0.853919
vt 0.531902 0.853919
vt 0.531902 0.916419
vt 0.469402 0.916419
vt 0.469402 0.353919
vt 0.531902 0.353919
vt 0.531902 0.416419
vt 0.469402 0.416419
vt 0.719402 0.353919
vt 0.781902 0.353919
vt 0.781902 0.416419
vt 0.719402 0.416419
vt 0.719402 0.103919
vt 0.781902 0.103919
vt 0.781902 0.166419
vt 0.719402 0.166419
vt 0.219402 0.353919
vt 0.281902 0.353919
vt 0.281902 0.416419
vt 0.219402 0.416419
vt 0.469402 0.103919
vt 0.531902 0.103919
vt 0.531902 0.166419
vt 0.469402 0.166419
vt 0.469402 0.603919
vt 0.531902 0.603919
vt 0.531902 0.666419
vt 0.469402 0.666419
vt 0.719402 0.853919
vt 0.781902 0.853919
vt 0.781902 0.916419
vt 0.719402 0.916419
vt 0.719402 0.603919
vt 0.781902 0.603919
vt 0.781902 0.666419
vt 0.719402 0.666419
vt 0.594402 0.603919
vt 0.656902 0.603919
vt 0.656902 0.666419
vt 0.594402 0.666419
vt 0.594402 0.478919
vt 0.656902 0.478919
vt 0.656902 0.541419
vt 0.594402 0.541419
vt 0.594402 0.853919
vt 0.656902 0.853919
vt 0.656902 0.916419
vt 0.594402 0.916419
vt 0.594402 0.728919
vt 0.656902 0.728919
vt 0.656902 0.791419
vt 0.594402 0.791419
vt 0.344402 0.603919
vt 0.406902 0.603919
vt 0.406902 0.666419
vt 0.344402 0.666419
vt 0.469402 0.478919
vt 0.531902 0.478919
vt 0.531902 0.541419
vt 0.469402 0.541419
vt 0.344402 0.103919
vt 0.406902 0.103919
vt 0.406902 0.166419
vt 0.344402 0.166419
vt 0.344402 0.978919
vt 0.406902 0.978919
vt 0.406902 1.041419
vt 0.344402 1.041419
vt 0.469402 0.978919
vt 0.531902 0.978919
vt 0.531902 1.041419
vt 0.469402 1.041419
vt 0.594402 0.103919
vt 0.656902 0.103919
vt 0.656902 0.166419
vt 0.594402 0.166419
vt 0.594402 0.978919
vt 0.656902 0.978919
vt 0.656902 1.041419
vt 0.594402 1.041419
vt 0.719402 0.978919
vt 0.781902 0.978919
vt 0.781902 1.041419
vt 0.719402 1.041419
vt 0.594402 0.353919
vt 0.656902 0.353919
vt 0.656902 0.416419
vt 0.594402 0.416419
vt 0.594402 0.228919
vt 0.656902 0.228919
vt 0.656902 0.291419
vt 0.594402 0.291419
vt 0.844402 0.353919
vt 0.906902 0.353919
vt 0.906902 0.416419
vt 0.844402 0.416419
vt 0.344402 0.353919
vt 0.406902 0.353919
vt 0.406902 0.416419
vt 0.344402 0.416419
vt 0.469402 0.228919
vt 0.531902 0.228919
vt 0.531902 0.291419
vt 0.469402 0.291419
vt 0.344402 0.853919
vt 0.406902 0.853919
vt 0.406902 0.916419
vt 0.344402 0.916419
vt 0.469402 0.728919
vt 0.531902 0.728919
vt 0.531902 0.791419
vt 0.469402 0.791419
vt 0.844402 0.666419
vt 0.844402 0.728919
vt 0.781902 0.728919
vt 0.844402 0.853919
vt 0.844402 0.916419
vt 0.781902 0.791419
vt 0.844402 0.791419
vt 0.406902 0.728919
vt 0.281902 0.666419
vt 0.344402 0.728919
vt 0.281902 0.728919
vt 0.281902 0.853919
vt 0.281902 0.916419
vt 0.281902 0.791419
vt 0.344402 0.791419
vt 0.406902 0.791419
vt 0.406902 0.228919
vt 0.281902 0.166419
vt 0.344402 0.228919
vt 0.281902 0.228919
vt 0.281902 0.291419
vt 0.344402 0.291419
vt 0.406902 0.291419
vt 0.844402 0.166419
vt 0.844402 0.228919
vt 0.781902 0.228919
vt 0.781902 0.291419
vt 0.844402 0.291419
vt 0.906902 0.291419
vt 0.719402 0.228919
vt 0.531902 0.041419
vt 0.594402 0.041419
vt 0.656902 0.041419
vt 0.844402 0.978919
vt 0.844402 1.041419
vt 0.844402 0.103919
vt 0.281902 0.978919
vt 0.281902 1.041419
vt 0.281902 0.103919
vt 0.156902 0.416419
vt 0.219402 0.478919
vt 0.156902 0.478919
vt 0.281902 0.478919
vt 0.406902 0.478919
vt 0.344402 0.478919
vt 0.281902 0.603919
vt 0.719402 0.728919
vt 0.719402 0.478919
vt 0.781902 0.478919
vt 0.969402 0.416419
vt 0.969402 0.478919
vt 0.906902 0.478919
vt 0.844402 0.478919
vt 0.844402 0.603919
vt 0.719402 0.791419
vt 0.469402 0.041419
vt 0.156902 0.353919
vt 0.156902 0.291419
vt 0.219402 0.291419
vt 0.719402 0.291419
vt 0.969402 0.353919
vt 0.969402 0.291419
vt 0.656902 0.761911
vt 0.719402 0.761911
vt 0.719402 0.836092
vt 0.656902 0.836092
vt 0.406902 0.761911
vt 0.344402 0.761911
vt 0.344402 0.836092
vt 0.406902 0.836092
vt 0.541419 0.761911
vt 0.603919 0.761911
vt 0.604138 0.836092
vt 0.541638 0.836092
vt 0.666419 0.761911
vt 0.666638 0.836092
vt 0.281902 0.761911
vt 0.281902 0.836092
vt 0.478919 0.761911
vt 0.479138 0.836092
vt 0.916419 0.761911
vt 0.853919 0.761911
vt 0.854138 0.836092
vt 0.916638 0.836092
vt 0.531902 0.761911
vt 0.594402 0.761911
vt 0.594402 0.836092
vt 0.531902 0.836092
vt 0.781902 0.761911
vt 0.781902 0.836092
vt 0.728919 0.761911
vt 0.791419 0.761911
vt 0.791638 0.836092
vt 0.729138 0.836092
vt 0.469402 0.761911
vt 0.469402 0.836092
vt 0.844402 0.761911
vt 0.844402 0.836092
vt 0.000000 0.000000
vt 0.166419 0.761911
vt 0.228919 0.761911
vt 0.228702 0.837137
vt 0.166202 0.837137
vt 0.406902 0.837137
vt 0.469402 0.837137
vt 0.291419 0.761911
vt 0.353919 0.761911
vt 0.353702 0.837137
vt 0.291202 0.837137
vt 0.906902 0.761911
vt 0.969402 0.761911
vt 0.969402 0.837137
vt 0.906902 0.837137
vt 0.719402 0.837137
vt 0.656902 0.837137
vt 0.219402 0.761911
vt 0.156902 0.761911
vt 0.156902 0.837137
vt 0.219402 0.837137
vt 0.281902 0.837137
vt 0.344402 0.837137
vt 0.416419 0.761911
vt 0.416202 0.837137
vt 0.478702 0.837137
vt 0.781902 0.837137
vt 0.844402 0.837137
vt 0.531902 0.837137
vt 0.594402 0.837137
vt 0.978919 0.761911
vt 0.978702 0.837137
vt 0.916202 0.837137
vt 0.041419 0.761911
vt 0.103919 0.761911
vt 0.103702 0.837137
vt 0.041202 0.837137
vt -0.021081 0.761911
vt -0.021298 0.837137
vt 1.041419 0.761911
vt 1.041202 0.837137
vn 0.000000 1.000000 0.000000
vn 0.000000 0.003000 1.000000
vn 0.000000 -0.003000 -1.000000
vn 1.000000 -0.000000 0.000000
vn -1.000000 0.000000 0.000000
vn 0.000000 0.002900 -1.000000
vn 0.000000 -0.002900 1.000000
g Plane_Plane_Floor
usemtl Floor
s off
f 180/1/1 49/2/1 2/3/1 81/4/1
f 179/5/1 50/6/1 3/7/1 84/8/1
f 177/9/1 59/10/1 11/11/1 79/12/1
f 176/13/1 60/14/1 12/15/1 88/16/1
f 175/17/1 63/18/1 10/19/1 78/20/1
f 174/21/1 56/22/1 9/23/1 91/24/1
f 173/25/1 55/26/1 8/27/1 94/28/1
f 172/29/1 69/30/1 7/31/1 75/32/1
f 171/33/1 70/34/1 15/35/1 97/36/1
f 167/37/1 99/38/1 37/39/1 71/40/1
f 166/41/1 100/42/1 38/43/1 101/44/1
f 164/45/1 102/46/1 17/47/1 48/48/1
f 163/49/1 103/50/1 39/51/1 104/52/1
f 161/53/1 106/54/1 35/55/1 68/56/1
f 159/57/1 82/58/1 24/59/1 108/60/1
f 157/61/1 110/62/1 33/63/1 65/64/1
f 156/65/1 111/66/1 40/67/1 112/68/1
f 155/69/1 83/70/1 25/71/1 113/72/1
f 152/73/1 117/74/1 30/75/1 61/76/1
f 151/77/1 118/78/1 42/79/1 119/80/1
f 150/81/1 87/82/1 29/83/1 120/84/1
f 149/85/1 121/86/1 21/87/1 51/88/1
f 148/89/1 122/90/1 43/91/1 123/92/1
f 146/93/1 125/94/1 27/95/1 58/96/1
f 144/97/1 128/98/1 26/99/1 57/100/1
f 142/101/1 77/102/1 19/103/1 131/104/1
f 141/105/1 132/106/1 23/107/1 53/108/1
f 139/109/1 76/110/1 18/111/1 135/112/1
f 15/35/1 72/113/1 137/114/1 95/115/1
f 69/30/1 138/116/1 54/117/1 7/31/1
f 36/118/1 136/119/1 138/116/1 69/30/1
f 35/55/1 94/28/1 139/109/1 133/120/1
f 94/28/1 8/27/1 76/110/1 139/109/1
f 14/121/1 68/56/1 140/122/1 92/123/1
f 68/56/1 35/55/1 133/120/1 140/122/1
f 66/124/1 141/105/1 53/108/1 5/125/1
f 34/126/1 134/127/1 141/105/1 66/124/1
f 134/127/1 46/128/1 132/106/1 141/105/1
f 33/63/1 91/24/1 142/101/1 129/129/1
f 91/24/1 9/23/1 77/102/1 142/101/1
f 13/130/1 65/64/1 143/131/1 89/132/1
f 65/64/1 33/63/1 129/129/1 143/131/1
f 63/18/1 144/97/1 57/100/1 10/19/1
f 31/133/1 130/134/1 144/97/1 63/18/1
f 130/134/1 45/135/1 128/98/1 144/97/1
f 12/15/1 62/136/1 145/137/1 86/138/1
f 59/10/1 146/93/1 58/96/1 11/11/1
f 28/139/1 126/140/1 146/93/1 59/10/1
f 126/140/1 44/141/1 125/94/1 146/93/1
f 30/75/1 88/16/1 147/142/1 122/90/1
f 88/16/1 12/15/1 86/138/1 147/142/1
f 77/102/1 148/89/1 123/92/1 19/103/1
f 9/23/1 61/76/1 148/89/1 77/102/1
f 61/76/1 30/75/1 122/90/1 148/89/1
f 50/6/1 149/85/1 51/88/1 3/7/1
f 19/103/1 123/92/1 149/85/1 50/6/1
f 123/92/1 43/91/1 121/86/1 149/85/1
f 118/78/1 150/81/1 120/84/1 42/79/1
f 22/47/1 52/32/1 150/81/1 118/78/1
f 52/32/1 4/31/1 87/82/1 150/81/1
f 83/70/1 151/77/1 119/80/1 25/71/1
f 1/3/1 80/48/1 151/77/1 83/70/1
f 80/48/1 22/47/1 118/78/1 151/77/1
f 56/22/1 152/73/1 61/76/1 9/23/1
f 25/143/1 119/144/1 152/73/1 56/22/1
f 119/144/1 42/145/1 117/74/1 152/73/1
f 87/82/1 153/146/1 116/147/1 29/83/1
f 4/31/1 73/117/1 153/146/1 87/82/1
f 60/14/1 154/148/1 62/136/1 12/15/1
f 111/66/1 155/69/1 113/72/1 40/67/1
f 16/107/1 47/4/1 155/69/1 111/66/1
f 47/4/1 1/3/1 83/70/1 155/69/1
f 90/149/1 156/65/1 112/68/1 32/150/1
f 6/125/1 74/108/1 156/65/1 90/149/1
f 74/108/1 16/107/1 111/66/1 156/65/1
f 64/151/1 157/61/1 65/64/1 13/130/1
f 20/152/1 78/20/1 158/153/1 109/154/1
f 78/20/1 10/19/1 93/155/1 158/153/1
f 26/99/1 84/8/1 159/57/1 107/156/1
f 84/8/1 3/7/1 82/58/1 159/57/1
f 10/19/1 57/100/1 160/157/1 93/155/1
f 57/100/1 26/99/1 107/156/1 160/157/1
f 67/158/1 161/53/1 68/56/1 14/121/1
f 37/39/1 97/36/1 162/159/1 103/50/1
f 97/36/1 15/35/1 95/115/1 162/159/1
f 76/110/1 163/49/1 104/52/1 18/111/1
f 8/27/1 71/40/1 163/49/1 76/110/1
f 71/40/1 37/39/1 103/50/1 163/49/1
f 49/2/1 164/45/1 48/48/1 2/3/1
f 18/111/1 104/52/1 164/45/1 49/2/1
f 104/52/1 39/51/1 102/46/1 164/45/1
f 21/87/1 79/12/1 165/160/1 100/42/1
f 79/12/1 11/11/1 96/161/1 165/160/1
f 82/58/1 166/41/1 101/44/1 24/59/1
f 3/7/1 51/88/1 166/41/1 82/58/1
f 51/88/1 21/87/1 100/42/1 166/41/1
f 55/26/1 167/37/1 71/40/1 8/27/1
f 24/59/1 101/44/1 167/37/1 55/26/1
f 101/44/1 38/43/1 99/38/1 167/37/1
f 27/95/1 85/162/1 168/163/1 98/164/1
f 11/11/1 58/96/1 169/165/1 96/161/1
f 58/96/1 27/95/1 98/164/1 169/165/1
f 70/34/1 170/166/1 72/113/1 15/35/1
f 99/38/1 171/33/1 97/36/1 37/39/1
f 102/46/1 172/29/1 75/32/1 17/47/1
f 39/51/1 105/167/1 172/29/1 102/46/1
f 105/167/1 36/118/1 69/30/1 172/29/1
f 106/54/1 173/25/1 94/28/1 35/55/1
f 108/60/1 24/59/1 55/26/1 173/25/1
f 110/62/1 174/21/1 91/24/1 33/63/1
f 113/168/1 25/143/1 56/22/1 174/21/1
f 114/169/1 175/17/1 78/20/1 20/152/1
f 41/170/1 115/171/1 175/17/1 114/169/1
f 115/171/1 31/133/1 63/18/1 175/17/1
f 117/74/1 176/13/1 88/16/1 30/75/1
f 121/86/1 177/9/1 79/12/1 21/87/1
f 43/91/1 124/172/1 177/9/1 121/86/1
f 124/172/1 28/139/1 59/10/1 177/9/1
f 125/94/1 178/173/1 85/162/1 27/95/1
f 44/141/1 127/174/1 178/173/1 125/94/1
f 128/98/1 179/5/1 84/8/1 26/99/1
f 45/135/1 131/104/1 179/5/1 128/98/1
f 131/104/1 19/103/1 50/6/1 179/5/1
f 132/106/1 180/1/1 81/4/1 23/107/1
f 46/128/1 135/112/1 180/1/1 132/106/1
f 135/112/1 18/111/1 49/2/1 180/1/1
g Plane_Plane_walls
usemtl walls
f 99/175/2 171/176/2 224/177/2 205/178/2
f 46/179/3 134/180/3 213/181/3 192/182/3
f 108/183/4 173/184/4 225/185/4 211/186/4
f 72/187/5 170/184/5 223/185/5 199/188/5
f 67/189/2 161/180/2 221/181/2 197/190/2
f 100/191/4 38/183/4 190/186/4 206/192/4
f 92/189/2 140/180/2 219/181/2 202/190/2
f 38/183/4 99/184/4 205/185/4 190/186/4
f 54/193/5 138/194/5 217/195/5 195/196/5
f 108/183/5 159/191/5 220/192/5 211/186/5
f 2/197/2 48/198/2 193/199/2 181/200/2
f 36/201/3 105/176/3 209/177/3 188/202/3
f 103/175/2 162/176/2 222/177/2 208/178/2
f 75/176/2 7/201/2 183/202/2 200/177/2
f 103/203/4 39/204/4 191/205/4 208/206/4
f 72/187/4 137/203/4 216/206/4 199/188/4
f 23/179/2 81/207/2 201/208/2 186/182/2
f 171/176/2 70/201/2 198/202/2 224/177/2
f 135/204/5 139/203/5 218/206/5 214/205/5
f 106/179/2 173/207/2 225/208/2 210/182/2
f 161/180/2 106/179/2 210/182/2 221/181/2
f 140/180/2 133/179/2 212/182/2 219/181/2
f 136/204/4 138/194/4 217/195/4 215/205/4
f 5/189/2 53/180/2 194/181/2 182/190/2
f 48/198/2 17/175/2 185/178/2 193/199/2
f 66/194/4 5/193/4 182/196/4 196/195/4
f 162/176/2 95/201/2 204/202/2 222/177/2
f 95/201/2 137/209/2 216/210/2 204/202/2
f 94/187/4 139/203/4 218/206/4 203/188/4
f 81/207/2 2/197/2 181/200/2 201/208/2
f 92/203/5 14/187/5 184/188/5 202/206/5
f 103/203/5 37/187/5 189/188/5 208/206/5
f 70/201/2 170/209/2 223/210/2 198/202/2
f 134/180/3 34/189/3 187/190/3 213/181/3
f 7/201/2 54/209/2 195/210/2 183/202/2
f 81/211/5 180/211/5 226/211/5 201/211/5
f 67/184/4 14/187/4 184/188/4 197/185/4
f 136/209/3 36/201/3 188/202/3 215/210/3
f 105/176/3 39/175/3 191/178/3 209/177/3
f 53/180/2 23/179/2 186/182/2 194/181/2
f 66/194/5 34/204/5 187/205/5 196/195/5
f 17/175/2 75/176/2 200/177/2 185/178/2
f 133/179/2 139/207/2 218/208/2 212/182/2
f 135/207/3 46/179/3 192/182/3 214/208/3
f 102/194/4 17/193/4 185/196/4 207/195/4
f 62/212/4 145/213/4 286/214/4 251/215/4
f 113/207/6 40/179/6 240/216/6 269/217/6
f 127/218/4 178/219/4 300/220/4 279/221/4
f 98/222/7 168/223/7 296/224/7 263/225/7
f 117/175/7 176/176/7 299/226/7 273/227/7
f 115/228/6 41/229/6 241/230/6 271/231/6
f 74/180/6 6/189/6 229/232/6 254/233/6
f 109/191/5 20/234/5 233/235/5 266/236/5
f 45/179/6 130/180/6 281/233/6 245/216/6
f 126/209/6 28/201/6 235/237/6 278/238/6
f 41/218/4 114/219/4 270/220/4 241/221/4
f 86/201/7 145/209/7 286/238/7 257/237/7
f 28/201/6 124/176/6 277/226/6 235/237/6
f 120/176/6 42/175/6 242/227/6 275/226/6
f 80/198/6 1/197/6 227/239/6 255/240/6
f 107/179/7 159/207/7 293/217/7 265/216/7
f 47/193/4 155/241/4 290/242/4 246/243/4
f 89/213/5 13/212/5 231/215/5 258/214/5
f 176/176/7 60/201/7 250/237/7 299/226/7
f 42/244/4 117/245/4 273/246/4 242/247/4
f 1/197/6 47/207/6 246/217/6 227/239/6
f 122/211/7 147/211/7 287/211/7 276/211/7
f 127/223/6 44/222/6 244/225/6 279/224/6
f 59/219/5 28/218/5 235/221/5 249/220/5
f 62/212/5 154/245/5 289/246/5 251/215/5
f 4/201/6 52/176/6 247/226/6 228/237/6
f 6/193/4 90/241/4 259/242/4 229/243/4
f 40/179/6 112/180/6 268/233/6 240/216/6
f 147/211/7 86/211/7 257/211/7 287/211/7
f 118/241/5 22/193/5 234/243/5 274/242/5
f 64/189/7 157/180/7 291/233/7 252/232/7
f 11/234/4 96/191/4 262/236/4 230/235/4
f 100/175/7 165/176/7 295/226/7 264/227/7
f 122/213/4 43/218/4 243/221/4 276/214/4
f 64/245/4 13/212/4 231/215/4 252/246/4
f 116/209/6 29/201/6 236/237/6 272/238/6
f 89/189/7 143/180/7 284/233/7 258/232/7
f 157/180/7 110/179/7 267/216/7 291/233/7
f 60/201/7 154/209/7 289/238/7 250/237/7
f 73/209/6 4/201/6 228/237/6 253/238/6
f 31/189/6 115/228/6 271/231/6 238/232/6
f 165/176/7 96/201/7 262/237/7 295/226/7
f 109/229/7 158/228/7 292/231/7 266/230/7
f 44/222/6 126/209/6 278/238/6 244/225/6
f 96/201/7 169/209/7 297/238/7 262/237/7
f 57/234/4 160/191/4 294/236/4 248/235/4
f 29/201/6 120/176/6 275/226/6 236/237/6
f 16/179/6 74/180/6 254/233/6 232/216/6
f 143/180/7 129/179/7 280/216/7 284/233/7
f 130/180/6 31/189/6 238/232/6 281/233/6
f 47/207/6 16/179/6 232/216/6 246/217/6
f 114/219/4 20/234/4 233/235/4 270/220/4
f 158/228/7 93/189/7 261/232/7 292/231/7
f 131/218/5 142/213/5 283/214/5 282/221/5
f 22/175/6 80/198/6 255/240/6 234/227/6
f 124/176/6 43/175/6 243/227/6 277/226/6
f 169/209/7 98/222/7 263/225/7 297/238/7
f 93/189/7 160/180/7 294/233/7 261/232/7
f 116/244/5 153/248/5 288/249/5 272/247/5
f 52/176/6 22/175/6 234/227/6 247/226/6
f 113/244/4 174/245/4 298/246/4 269/247/4
f 131/207/6 45/179/6 245/216/6 282/217/6
f 91/212/4 142/213/4 283/214/4 260/215/4
f 160/180/7 107/179/7 265/216/7 294/233/7
f 73/193/4 153/241/4 288/242/4 253/243/4
f 90/241/4 32/250/4 239/251/4 259/242/4
f 112/180/6 32/189/6 239/232/6 268/233/6
f 85/234/5 178/219/5 300/220/5 256/235/5
f 122/213/5 30/212/5 237/215/5 276/214/5
f 110/179/7 174/207/7 298/217/7 267/216/7
f 85/234/4 168/191/4 296/236/4 256/235/4
f 130/218/4 144/219/4 285/220/4 281/221/4
f 129/179/7 142/207/7 283/217/7 280/216/7
